<svg xmlns="http://www.w3.org/2000/svg" viewBox="0 0 504 505"><defs><style>.cls-1{fill:#fff;}</style></defs><title>Asset 1</title><g id="Layer_2" fill="#000000" data-name="Layer 2"><g id="Layer_1-2" data-name="Layer 1"><path class="cls-1" d="M504,164V341a29.64,29.64,0,0,0-1,4.51q-.62,9.88-1,19.77a167,167,0,0,1-10.94,52.94c-5.17,13.57-12.2,26.07-21.81,36.84-12.88,14.43-27.61,26.46-45.73,34.25C405.61,497,387,501.14,367.76,502.88c-10.53,1-21.16.75-31.74,1.15a11.65,11.65,0,0,0-3,1H171a17.74,17.74,0,0,0-3.52-1c-15.29-1-30.62-1.63-45.86-3.14-16-1.58-31.24-6.58-45.7-13.55-15-7.25-27.83-17.53-39.14-29.9A119.59,119.59,0,0,1,14.19,422C4.68,398.85.84,374.51,1,349.51A21.12,21.12,0,0,0,0,345q0-92.5,0-185a23.53,23.53,0,0,0,1-4c.41-6.09.72-12.19,1-18.3a164.91,164.91,0,0,1,10.93-51C22.27,62.26,38.12,43.11,59.13,28,83,10.84,110.58,4.48,139.21,2.16,153.73,1,168.39,1.37,183,1a19.4,19.4,0,0,0,4-1H317a21.9,21.9,0,0,0,4,1c19.45,1,39,1.44,58.34,3.19A135.52,135.52,0,0,1,437,23C463.34,38.72,481.49,61.2,492,89.95c8.07,22,10.93,44.77,11,68A37.64,37.64,0,0,0,504,164ZM329.27,459l0-.59c7.43-.47,14.87-.73,22.27-1.46,11.57-1.15,23.28-1.79,34.63-4.13a83.25,83.25,0,0,0,52.33-34.16c9.59-13.51,14.69-29.24,16.32-45.64,1.74-17.56,3-35.25,3-52.89.11-48.76-.4-97.53-.92-146.29-.14-12.71-.88-25.43-2-38.09-1.75-19.87-7.54-38.21-20.48-54.09C423.24,67.89,408.88,59.4,392.4,54c-18.84-6.12-38.57-6.71-58-6.82-57.76-.32-115.52.27-173.28.89a271.27,271.27,0,0,0-36.86,3c-16.71,2.48-32,9-44.94,20.1C60.95,87,52.22,108,49.17,131.35a349.62,349.62,0,0,0-3,44.88c-.05,53.26.41,106.52.93,159.79.12,11.87,1.08,23.75,2,35.6A94.35,94.35,0,0,0,59.67,409q15.85,29.87,48.21,41.13c17.34,6,35.37,6.56,53.31,7.77,12.57.85,25.19,1,37.8,1.05C242.41,459.09,285.84,459,329.27,459Z"/><path class="cls-1" d="M252.26,123c71.42-.46,131,57.8,129.56,132.5-.69,35.18-13.94,65.62-39.29,90.43s-56.13,36.68-90.93,36.76c-33,.08-62.59-11.19-87.12-33.83-29.73-27.43-43.88-61.74-42.36-102C124.61,180.89,178.69,122.39,252.26,123ZM335,253.18c1.23-45.88-37.55-83.77-81.45-84-48.76-.23-84.85,36.49-85.16,83.25-.31,46,35.39,81.43,79.86,83.53C297.28,338.27,336,297.43,335,253.18Z"/><path class="cls-1" d="M356,118.3c-.74-18.37,13.33-30.57,29.81-31,16.74-.45,31.7,12.65,31.24,32C416.67,136,403.5,149,386.25,149,370.33,149,355.08,136,356,118.3Z"/></g></g></svg>
