<svg xmlns="http://www.w3.org/2000/svg" viewBox="0 0 803 803"><title>logo</title><g id="Layer_2" data-name="Layer 2"><g id="Layer_1-2" data-name="Layer 1"><g id="Layer_2-2" data-name="Layer 2"><g id="Layer_1-2-2" data-name="Layer 1-2"><path d="M653,0H150A150,150,0,0,0,0,150V653A150,150,0,0,0,150,803H653A150,150,0,0,0,803,653V150A150,150,0,0,0,653,0ZM619.84,472.21,472.21,619.83a100,100,0,0,1-141.42,0L183.17,472.21a100,100,0,0,1,0-141.42L330.79,183.17a100,100,0,0,1,141.42,0L619.84,330.79A100,100,0,0,1,619.84,472.21Z"/></g></g></g></g></svg>