<svg xmlns="http://www.w3.org/2000/svg" viewBox="0 0 271 192"><defs><style>.cls-1{fill:#fff;}</style></defs><title>Asset 1</title><g id="Layer_2" data-name="Layer 2"><g id="Layer_1-2" data-name="Layer 1"><path class="cls-1" d="M35,0H237c19,0,34,16,34,35V157c0,19-15,35-34,35H35c-19,0-35-16-35-35V35C0,16,16,0,35,0ZM17,164l52-53c7-7,18,3,11,11L27,175c2,1,5,1,8,1H237c2,0,5,0,7-1l-53-53c-7-8,4-18,11-11l53,53c1-2,1-5,1-7V35l-92,77c-16,13-41,12-57,0L15,35V157A18.54,18.54,0,0,0,17,164ZM22,20l95,79c10,9,27,9,37,1l96-80c-4-3-8-5-13-5H35A19,19,0,0,0,22,20Z"/></g></g></svg>