<svg xmlns="http://www.w3.org/2000/svg" viewBox="0 0 250 203.14"><defs><style>.cls-1{fill:#fff;}.cls-2{fill:none;}</style></defs><title>Asset 2</title><g id="Layer_2" data-name="Layer 2"><g id="Layer_1-2" data-name="Layer 1"><g id="Logo_FIXED" data-name="Logo FIXED"><path class="cls-1" d="M224.41,50.57c.15,2.2.15,4.41.15,6.63,0,67.78-51.6,145.94-145.94,145.94v0A145.22,145.22,0,0,1,0,180.1a103.79,103.79,0,0,0,12.21.74,103,103,0,0,0,63.7-22A51.36,51.36,0,0,1,28,123.22a51.2,51.2,0,0,0,23.16-.88A51.31,51.31,0,0,1,10,72.06v-.65a50.84,50.84,0,0,0,23.28,6.42A51.33,51.33,0,0,1,17.4,9.36,145.63,145.63,0,0,0,123.11,62.95a51.34,51.34,0,0,1,87.41-46.78A102.76,102.76,0,0,0,243.09,3.72a51.46,51.46,0,0,1-22.55,28.37A102.23,102.23,0,0,0,250,24,104.36,104.36,0,0,1,224.41,50.57Z"/><path class="cls-2" d="M224.41,50.57c.15,2.2.15,4.41.15,6.63,0,67.78-51.6,145.94-145.94,145.94v0A145.22,145.22,0,0,1,0,180.1a103.79,103.79,0,0,0,12.21.74,103,103,0,0,0,63.7-22A51.36,51.36,0,0,1,28,123.22a51.2,51.2,0,0,0,23.16-.88A51.31,51.31,0,0,1,10,72.06v-.65a50.84,50.84,0,0,0,23.28,6.42A51.33,51.33,0,0,1,17.4,9.36,145.63,145.63,0,0,0,123.11,62.95a51.34,51.34,0,0,1,87.41-46.78A102.76,102.76,0,0,0,243.09,3.72a51.46,51.46,0,0,1-22.55,28.37A102.23,102.23,0,0,0,250,24,104.36,104.36,0,0,1,224.41,50.57Z"/></g></g></g></svg>