<svg xmlns="http://www.w3.org/2000/svg" xmlns:xlink="http://www.w3.org/1999/xlink" viewBox="0 0 1021.45 718.42"><defs><style>.cls-1{fill:none;}.cls-2{clip-path:url(#clip-path);}.cls-3{fill:#e0e0e0;}.cls-4{fill:#fff;}</style><clipPath id="clip-path" transform="translate(0 0)"><rect class="cls-1" width="1021.44" height="718.42"/></clipPath></defs><title>Asset 5</title><g id="Layer_2" data-name="Layer 2"><g id="Layer_1-2" data-name="Layer 1"><g class="cls-2"><polyline class="cls-3" points="647.27 366.33 405.23 204.7 681.23 348.7 647.27 366.33"/><path class="cls-4" d="M405.27,491.7l0-287,276,144-276,143Zm606-336.72s-10-70.39-40.61-101.39C931.8,12.92,888.26,12.71,868.3,10.33,725.36,0,510.95,0,510.95,0h-.44S296.09,0,153.15,10.33c-20,2.38-63.49,2.58-102.35,43.27C20.18,84.6,10.22,155,10.22,155S0,237.64,0,320.3V397.8c0,82.66,10.22,165.32,10.22,165.32s10,70.39,40.59,101.39c38.86,40.68,89.9,39.4,112.63,43.66,81.72,7.84,347.29,10.26,347.29,10.26s214.63-.32,357.57-10.65c20-2.38,63.5-2.58,102.35-43.27,30.63-31,40.61-101.39,40.61-101.39s10.2-82.66,10.2-165.32V320.3c0-82.66-10.2-165.32-10.2-165.32Z" transform="translate(0 0)"/></g></g></g></svg>